<svg width="36" height="34" viewBox="0 0 36 34" fill="none" xmlns="http://www.w3.org/2000/svg">
<path fill-rule="evenodd" clip-rule="evenodd" d="M17.9226 33.9996H5.13867C2.61004 34.0308 0.441466 32.202 0.0454768 29.7043C-0.0511215 28.8973 0.00649091 28.0792 0.21525 27.2936C0.809455 24.4074 1.38668 21.5043 1.91298 18.6182C2.17158 17.3737 2.42249 16.1291 2.67303 14.8865L2.67303 14.8864L2.67306 14.8863C2.94884 13.5184 3.22418 12.1527 3.50885 10.7916C3.99253 8.63726 5.80927 7.0399 8.00783 6.83593H9.90929C10.0318 6.84663 10.1477 6.77847 10.1979 6.66615C10.3964 6.29176 10.5893 5.91547 10.7828 5.53792L10.7828 5.53791C11.1684 4.78551 11.5566 4.0281 11.9975 3.27069C13.0868 1.45055 14.9786 0.258739 17.0907 0.0619831C20.0283 -0.332296 22.8923 1.18155 24.2212 3.83094L25.6982 6.6322C25.7433 6.73906 25.855 6.80188 25.9698 6.78499H27.8713C30.0439 7.01663 31.8267 8.60819 32.3023 10.7407C32.8796 13.508 33.4398 16.2923 34.0001 19.0766C34.1382 19.7632 34.2785 20.4571 34.4195 21.1549C34.8503 23.2866 35.2885 25.4548 35.6978 27.5652C36.2663 29.8578 35.1839 32.2404 33.0833 33.3205C32.3635 33.6893 31.5662 33.8813 30.7574 33.8808L17.9226 33.9996ZM17.9225 30.6042H30.6215C31.1638 30.6245 31.683 30.3843 32.0187 29.958C32.3544 29.5316 32.4661 28.9705 32.3192 28.4481C32.0136 27.005 31.725 25.562 31.4364 24.1019L28.8898 11.6066C28.7332 10.7966 28.0169 10.2165 27.1921 10.2315H8.51705C7.69218 10.2165 6.97593 10.7966 6.81932 11.6066C6.74531 11.9841 6.66808 12.355 6.59044 12.728L6.59043 12.728C6.48995 13.2107 6.38879 13.6966 6.29302 14.2041C5.34229 18.9012 4.38025 23.6039 3.40688 28.3123C3.31344 28.6742 3.31344 29.0539 3.40688 29.4158C3.63734 30.1514 4.33452 30.6395 5.10461 30.6042H17.9225ZM21.8444 6.68253C21.8494 6.73334 21.8494 6.78452 21.8444 6.83533H14.0178C14.1222 6.63349 14.2266 6.43736 14.3299 6.24343C14.4784 5.9643 14.6246 5.68972 14.7648 5.40924C15.0989 4.77328 15.6048 4.24388 16.2249 3.88128C17.9519 2.941 20.1139 3.56088 21.0804 5.27342L21.8444 6.68253Z" fill="white"/>
</svg>
