<svg width="16" height="16" viewBox="0 0 16 16" fill="none" xmlns="http://www.w3.org/2000/svg">
<path fill-rule="evenodd" clip-rule="evenodd" d="M13.8182 0H2.18182C0.976833 0 0 0.976833 0 2.18182V13.8182C0 15.0232 0.976833 16 2.18182 16H13.8182C15.0232 16 16 15.0232 16 13.8182V2.18182C16 0.976833 15.0232 0 13.8182 0ZM14.5455 13.8182C14.5455 14.2198 14.2198 14.5455 13.8182 14.5455H2.18182C1.78016 14.5455 1.45455 14.2198 1.45455 13.8182V2.18182C1.45455 1.78016 1.78016 1.45455 2.18182 1.45455H7.32364C7.29238 1.53337 7.27515 1.61706 7.27273 1.70182V4.61091C7.27273 5.01257 7.59834 5.33818 8 5.33818C8.40166 5.33818 8.72727 5.01257 8.72727 4.61091V1.70182C8.72485 1.61706 8.70762 1.53337 8.67636 1.45455H13.8182C14.2198 1.45455 14.5455 1.78016 14.5455 2.18182V13.8182Z" fill="#111322"/>
<path fill-rule="evenodd" clip-rule="evenodd" d="M9.41087 10.9091H10.8654C11.2671 10.9091 11.5927 10.5835 11.5927 10.1819C11.5927 9.7802 11.2671 9.45459 10.8654 9.45459H9.41087C9.0092 9.45459 8.68359 9.7802 8.68359 10.1819C8.68359 10.5835 9.0092 10.9091 9.41087 10.9091Z" fill="#111322"/>
<path fill-rule="evenodd" clip-rule="evenodd" d="M12.32 11.6365H9.41087C9.0092 11.6365 8.68359 11.9621 8.68359 12.3637C8.68359 12.7654 9.0092 13.091 9.41087 13.091H12.32C12.7216 13.091 13.0472 12.7654 13.0472 12.3637C13.0472 11.9621 12.7216 11.6365 12.32 11.6365Z" fill="#111322"/>
</svg>
