<svg width="30" height="30" viewBox="0 0 30 30" fill="none" xmlns="http://www.w3.org/2000/svg">
<path d="M14.375 25H6.875C6.54348 25 6.22554 24.8683 5.99112 24.6339C5.7567 24.3995 5.625 24.0815 5.625 23.75V6.25C5.625 5.91848 5.7567 5.60054 5.99112 5.36612C6.22554 5.1317 6.54348 5 6.875 5H13.125V8.75C13.125 9.74456 13.5201 10.6984 14.2233 11.4017C14.9266 12.1049 15.8804 12.5 16.875 12.5H20.625V18.75C20.625 19.0815 20.7567 19.3995 20.9911 19.6339C21.2255 19.8683 21.5435 20 21.875 20C22.2065 20 22.5245 19.8683 22.7589 19.6339C22.9933 19.3995 23.125 19.0815 23.125 18.75V11.25C23.125 11.25 23.125 11.25 23.125 11.175C23.112 11.0602 23.0868 10.947 23.05 10.8375V10.725C22.9899 10.5965 22.9097 10.4783 22.8125 10.375L15.3125 2.875C15.2092 2.77777 15.091 2.6976 14.9625 2.6375C14.9211 2.63026 14.8789 2.63026 14.8375 2.6375C14.716 2.5725 14.5853 2.52615 14.45 2.5H6.875C5.88044 2.5 4.92661 2.89509 4.22335 3.59835C3.52009 4.30161 3.125 5.25544 3.125 6.25V23.75C3.125 24.7446 3.52009 25.6984 4.22335 26.4017C4.92661 27.1049 5.88044 27.5 6.875 27.5H14.375C14.7065 27.5 15.0245 27.3683 15.2589 27.1339C15.4933 26.8995 15.625 26.5815 15.625 26.25C15.625 25.9185 15.4933 25.6005 15.2589 25.3661C15.0245 25.1317 14.7065 25 14.375 25ZM15.625 6.7625L18.8625 10H16.875C16.5435 10 16.2255 9.8683 15.9911 9.63388C15.7567 9.39946 15.625 9.08152 15.625 8.75V6.7625ZM9.375 17.5H16.875C17.2065 17.5 17.5245 17.3683 17.7589 17.1339C17.9933 16.8995 18.125 16.5815 18.125 16.25C18.125 15.9185 17.9933 15.6005 17.7589 15.3661C17.5245 15.1317 17.2065 15 16.875 15H9.375C9.04348 15 8.72554 15.1317 8.49112 15.3661C8.2567 15.6005 8.125 15.9185 8.125 16.25C8.125 16.5815 8.2567 16.8995 8.49112 17.1339C8.72554 17.3683 9.04348 17.5 9.375 17.5ZM14.375 20H9.375C9.04348 20 8.72554 20.1317 8.49112 20.3661C8.2567 20.6005 8.125 20.9185 8.125 21.25C8.125 21.5815 8.2567 21.8995 8.49112 22.1339C8.72554 22.3683 9.04348 22.5 9.375 22.5H14.375C14.7065 22.5 15.0245 22.3683 15.2589 22.1339C15.4933 21.8995 15.625 21.5815 15.625 21.25C15.625 20.9185 15.4933 20.6005 15.2589 20.3661C15.0245 20.1317 14.7065 20 14.375 20ZM9.375 12.5H10.625C10.9565 12.5 11.2745 12.3683 11.5089 12.1339C11.7433 11.8995 11.875 11.5815 11.875 11.25C11.875 10.9185 11.7433 10.6005 11.5089 10.3661C11.2745 10.1317 10.9565 10 10.625 10H9.375C9.04348 10 8.72554 10.1317 8.49112 10.3661C8.2567 10.6005 8.125 10.9185 8.125 11.25C8.125 11.5815 8.2567 11.8995 8.49112 12.1339C8.72554 12.3683 9.04348 12.5 9.375 12.5ZM26.5125 20.3625C26.3963 20.2453 26.258 20.1523 26.1057 20.0889C25.9534 20.0254 25.79 19.9928 25.625 19.9928C25.46 19.9928 25.2966 20.0254 25.1443 20.0889C24.992 20.1523 24.8537 20.2453 24.7375 20.3625L20.625 24.4875L19.0125 22.8625C18.896 22.746 18.7576 22.6535 18.6053 22.5904C18.453 22.5273 18.2898 22.4949 18.125 22.4949C17.9602 22.4949 17.797 22.5273 17.6447 22.5904C17.4924 22.6535 17.354 22.746 17.2375 22.8625C17.121 22.979 17.0285 23.1174 16.9654 23.2697C16.9023 23.422 16.8699 23.5852 16.8699 23.75C16.8699 23.9148 16.9023 24.078 16.9654 24.2303C17.0285 24.3826 17.121 24.521 17.2375 24.6375L19.7375 27.1375C19.8537 27.2547 19.992 27.3477 20.1443 27.4111C20.2966 27.4746 20.46 27.5072 20.625 27.5072C20.79 27.5072 20.9534 27.4746 21.1057 27.4111C21.258 27.3477 21.3963 27.2547 21.5125 27.1375L26.5125 22.1375C26.6297 22.0213 26.7227 21.883 26.7861 21.7307C26.8496 21.5784 26.8822 21.415 26.8822 21.25C26.8822 21.085 26.8496 20.9216 26.7861 20.7693C26.7227 20.617 26.6297 20.4787 26.5125 20.3625Z" fill="white"/>
</svg>
