<svg width="12" height="13" viewBox="0 0 12 13" fill="none" xmlns="http://www.w3.org/2000/svg">
<path d="M0.700043 11.9048C0.402069 11.6051 0.402069 11.121 0.700043 10.8212L10.4833 1.03794C10.6711 0.818626 10.966 0.723094 11.2468 0.790625C11.5275 0.858157 11.7467 1.07735 11.8142 1.35809C11.8818 1.63883 11.7862 1.93374 11.5669 2.12156L1.78366 11.9048C1.4839 12.2028 0.999794 12.2028 0.700043 11.9048Z" fill="white"/>
<path d="M0.700043 1.03793C0.999794 0.73996 1.4839 0.73996 1.78366 1.03793L11.5669 10.8212C11.7862 11.009 11.8818 11.3039 11.8142 11.5847C11.7467 11.8654 11.5275 12.0846 11.2468 12.1521C10.966 12.2197 10.6711 12.1241 10.4833 11.9048L0.700043 2.12155C0.402069 1.8218 0.402069 1.33768 0.700043 1.03793Z" fill="white"/>
</svg>
