<svg width="25" height="25" viewBox="0 0 25 25" fill="none" xmlns="http://www.w3.org/2000/svg">
<g clip-path="url(#clip0)">
<path d="M19.7396 15.401C19.249 14.3781 17.4938 12.9582 15.798 11.5864C14.8521 10.8218 13.9584 10.0989 13.3886 9.52908C13.2459 9.38533 13.0323 9.33948 12.8438 9.40721C12.4928 9.53431 12.2761 9.63221 12.1053 9.70823C11.8449 9.82488 11.7574 9.86448 11.4063 9.89988C11.2511 9.91551 11.1115 9.99886 11.0251 10.128C10.2886 11.229 9.52608 11.1353 9.01671 10.9645C8.85421 10.9103 8.82506 10.8405 8.80943 10.7739C8.70006 10.3166 9.24903 9.25198 9.96046 8.54051C11.6532 6.84676 12.5261 6.42278 14.3698 7.24676C16.4615 8.18216 18.5573 8.91448 18.5782 8.92176C18.8522 9.01653 19.1469 8.87278 19.2417 8.60091C19.3355 8.32903 19.1927 8.03216 18.9209 7.93738C18.9 7.93011 16.8459 7.21238 14.7959 6.29466C12.4073 5.22693 11.0969 5.93006 9.22501 7.80301C8.51251 8.51551 7.54478 9.95716 7.79478 11.0145C7.90206 11.4645 8.21876 11.7978 8.68956 11.953C9.86979 12.3426 10.9468 11.9697 11.7489 10.9051C12.0802 10.8541 12.2604 10.7791 12.5312 10.6572C12.6291 10.6135 12.7437 10.5624 12.8958 10.501C13.4917 11.0603 14.2958 11.7114 15.1427 12.3957C16.6739 13.6343 18.4104 15.0385 18.801 15.851C18.9938 16.252 18.7864 16.5135 18.6458 16.6332C18.4396 16.8103 18.1573 16.8666 18.0042 16.7593C17.8354 16.6436 17.6156 16.6364 17.4417 16.7405C17.2667 16.8447 17.1688 17.0415 17.1906 17.2436C17.226 17.5749 16.9229 17.7645 16.7917 17.8301C16.4583 17.9989 16.1104 17.9697 15.9802 17.8489C15.8343 17.7135 15.625 17.6739 15.4396 17.7426C15.2542 17.8124 15.125 17.9832 15.1062 18.1811C15.075 18.5228 14.8218 18.8509 14.4916 18.979C14.3322 19.0394 14.101 19.0759 13.8937 18.8863C13.7646 18.7697 13.5854 18.7248 13.4177 18.7655C13.2479 18.8071 13.1114 18.9301 13.0521 19.0936C13.0323 19.1457 12.9875 19.2707 12.5 19.2707C12.1531 19.2707 11.5291 19.0363 11.2239 18.8342C10.8583 18.5936 8.56559 16.8832 6.58541 15.2248C6.30729 14.9905 5.82603 14.4884 5.40103 14.0446C5.02394 13.6509 4.67916 13.2936 4.50206 13.1436C4.28019 12.9561 3.95206 12.9842 3.76769 13.2051C3.58228 13.4248 3.60934 13.754 3.82916 13.9394C3.99063 14.0759 4.30313 14.4061 4.64791 14.7655C5.11251 15.2509 5.59269 15.753 5.91563 16.0238C7.85523 17.6478 10.1865 19.4009 10.651 19.7061C11.0344 19.9582 11.8604 20.3123 12.5 20.3123C13.0135 20.3123 13.4084 20.1946 13.6823 19.9644C14.0489 20.1072 14.4656 20.1082 14.8667 19.9519C15.3406 19.7686 15.7302 19.3988 15.951 18.9509C16.3614 19.0384 16.8313 18.9769 17.2583 18.7624C17.676 18.552 17.9781 18.2301 18.1281 17.854C18.5427 17.8759 18.9697 17.729 19.3229 17.4259C19.9209 16.9145 20.0854 16.1187 19.7396 15.401Z" fill="white"/>
<path d="M10.4166 6.77051H5.7291C5.4416 6.77051 5.20825 7.00386 5.20825 7.29136C5.20825 7.57886 5.4416 7.81221 5.7291 7.81221H10.4166C10.7041 7.81221 10.9375 7.57886 10.9375 7.29136C10.9375 7.00386 10.7041 6.77051 10.4166 6.77051Z" fill="white"/>
<path d="M21.2656 14.2927C21.1041 14.0541 20.7812 13.9885 20.5427 14.151L19.0198 15.1739C18.7813 15.3343 18.7177 15.6583 18.8781 15.8968C18.9792 16.0458 19.1438 16.127 19.3115 16.127C19.4105 16.127 19.5115 16.0989 19.6011 16.0385L21.124 15.0156C21.3625 14.8552 21.426 14.5312 21.2656 14.2927Z" fill="white"/>
<path d="M18.0322 16.7781C17.6593 16.4844 15.9916 14.7771 14.9604 13.7021C14.7614 13.4937 14.4312 13.4865 14.2239 13.6865C14.0156 13.8854 14.0093 14.2156 14.2083 14.4229C14.476 14.7021 16.8374 17.1636 17.3864 17.5969C17.4812 17.6719 17.5958 17.7084 17.7083 17.7084C17.8614 17.7084 18.0145 17.6396 18.1187 17.5094C18.2968 17.2844 18.2583 16.9562 18.0322 16.7781Z" fill="white"/>
<path d="M15.951 17.8229C15.327 17.3239 13.7594 15.6583 13.4052 15.2729C13.2093 15.0604 12.8812 15.0479 12.6687 15.2417C12.4572 15.4364 12.4427 15.7667 12.6374 15.9781C12.6562 15.9979 14.527 18.0177 15.2999 18.6365C15.3958 18.7125 15.5114 18.75 15.6249 18.75C15.777 18.75 15.9291 18.6823 16.0322 18.5552C16.2115 18.3302 16.175 18.0021 15.951 17.8229Z" fill="white"/>
<path d="M13.8781 18.8715C13.1354 18.2455 11.6156 16.6278 11.3187 16.3101C11.1218 16.0997 10.7916 16.0882 10.5822 16.2851C10.3718 16.4819 10.3614 16.8111 10.5572 17.0215C10.9843 17.4788 12.4385 19.0205 13.2062 19.6684C13.3041 19.7507 13.4229 19.7913 13.5416 19.7913C13.6895 19.7913 13.8375 19.7278 13.9406 19.6059C14.126 19.3851 14.0979 19.0569 13.8781 18.8715Z" fill="white"/>
<path d="M6.0875 5.87156C5.19478 5.02571 1.625 4.75173 0.5521 4.68821C0.404199 4.68093 0.267725 4.72986 0.163574 4.82883C0.059375 4.92673 0 5.06423 0 5.20798V14.583C0 14.8705 0.23335 15.1038 0.52085 15.1038H3.64585C3.87085 15.1038 4.07085 14.9591 4.14062 14.7445C4.21665 14.5111 6.01147 9.00281 6.2479 6.29446C6.26147 6.13611 6.20312 5.97986 6.0875 5.87156ZM3.26562 14.0622H1.04165V5.76633C2.71563 5.89861 4.52187 6.18611 5.17812 6.50486C4.9021 8.78611 3.65312 12.8392 3.26562 14.0622Z" fill="white"/>
<path d="M24.4792 5.729C20.3896 5.729 18.1209 6.77588 18.0261 6.81963C17.8907 6.88315 17.7896 7.00088 17.748 7.1436C17.7063 7.28633 17.7271 7.43945 17.8052 7.5665C18.449 8.60298 20.4646 14.3592 20.8521 15.7634C20.9146 15.9894 21.1198 16.1456 21.3542 16.1456H24.4792C24.7667 16.1456 25 15.9123 25 15.6248V6.2498C25 5.96128 24.7667 5.729 24.4792 5.729ZM23.9584 15.104H21.7438C21.2501 13.4956 19.7917 9.3019 18.9782 7.5686C19.773 7.29883 21.4803 6.83525 23.9584 6.77695V15.104Z" fill="white"/>
</g>
<defs>
<clipPath id="clip0">
<rect width="25" height="25" fill="white"/>
</clipPath>
</defs>
</svg>
