<svg width="36" height="36" viewBox="0 0 36 36" fill="none" xmlns="http://www.w3.org/2000/svg">
<path fill-rule="evenodd" clip-rule="evenodd" d="M7.08891 29.0107C9.52947 31.3113 12.1723 33.3874 14.9853 35.2138C16.5341 36.2621 18.565 36.2621 20.1138 35.2138C22.771 33.3314 25.2653 31.2292 27.5706 28.9293C30.4678 26.2384 32.6117 22.8373 33.79 19.0629C33.8874 18.6419 33.8135 18.1994 33.5844 17.8329C33.3554 17.4665 32.9901 17.2061 32.5689 17.1092C31.6972 16.9053 30.8244 17.4435 30.6152 18.314C29.571 21.5045 27.7269 24.3744 25.2587 26.6499C23.0866 28.8115 20.7335 30.7833 18.2252 32.5437C17.7896 32.8463 17.2118 32.8463 16.7762 32.5437C14.1251 30.8234 11.6349 28.8671 9.33571 26.6988C6.71362 24.46 4.74954 21.5504 3.65359 18.2814C3.2956 16.207 3.17542 14.0985 3.2954 11.9969C3.2954 10.5642 3.44193 9.2291 3.53962 8.23595C4.15831 8.23595 4.92352 8.3662 5.73758 8.39876C7.37862 8.50507 9.02623 8.35678 10.6219 7.95917C12.3503 7.3759 13.9684 6.50632 15.4086 5.38675C16.2226 4.78434 16.939 4.19822 17.4926 3.75863C18.0461 4.23078 18.7625 4.83319 19.5766 5.38675C21.0406 6.5249 22.6941 7.39573 24.4609 7.95917C25.0222 8.11331 25.6231 7.95629 26.0373 7.54725C26.4514 7.13821 26.6159 6.5393 26.4687 5.97612C26.3215 5.41294 25.8851 4.97105 25.3238 4.81691C23.9686 4.34963 22.7025 3.65599 21.5791 2.76548C20.6449 2.07652 19.7532 1.33166 18.909 0.534964C18.1556 -0.178321 16.9761 -0.178321 16.2226 0.534964C15.3679 1.32624 14.4712 2.07083 13.5362 2.76548C12.398 3.65554 11.1222 4.35395 9.75902 4.83319C8.48051 5.13869 7.1622 5.24305 5.85154 5.14253C4.76167 5.10326 3.67469 5.00544 2.59532 4.84947C2.07395 4.78551 1.54878 4.93418 1.13831 5.26194C0.727837 5.58971 0.466638 6.06895 0.413641 6.59155C0.332236 7.40561 0.120581 9.53844 0.0554561 11.9318C-0.0926921 14.307 0.0549702 16.6915 0.495047 19.0303C1.73804 22.898 4.01886 26.3502 7.08891 29.0107Z" fill="white"/>
<path fill-rule="evenodd" clip-rule="evenodd" d="M17.3785 11.7855C16.9393 11.3987 16.3272 11.2756 15.7726 11.4625C15.218 11.6494 14.8053 12.118 14.6899 12.6917C14.5745 13.2654 14.774 13.8572 15.2131 14.244L20.0975 18.591C20.8 19.3751 22.0002 19.4547 22.8001 18.7701L34.7179 7.58497C35.3743 6.96903 35.4071 5.9376 34.7912 5.28119C34.1753 4.62479 33.1438 4.59199 32.4874 5.20793L21.6116 15.465L17.3785 11.7855Z" fill="white"/>
</svg>
