<svg width="15" height="15" viewBox="0 0 15 15" fill="none" xmlns="http://www.w3.org/2000/svg">
<path d="M7.50377 0.000400365L12.9029 0.000400837C13.6011 -0.0114313 14.2572 0.333335 14.6434 0.915044C14.8753 1.24732 14.9992 1.64293 14.9984 2.04811L14.9984 6.14352C15.0182 6.42227 14.8553 6.68179 14.5957 6.78514C14.3518 6.90979 14.0557 6.86593 13.8585 6.67593C13.7101 6.54214 13.6278 6.35006 13.6332 6.15035L13.6332 2.09589C13.6392 1.87747 13.5402 1.66939 13.367 1.53618C13.2543 1.44721 13.1148 1.39908 12.9711 1.39967L2.09099 1.39967C1.89195 1.38501 1.69646 1.45821 1.55599 1.59999C1.41552 1.74178 1.34414 1.93794 1.36064 2.13684L1.36064 6.14352C1.36813 6.35997 1.27245 6.56712 1.10281 6.70175C0.933167 6.83639 0.709698 6.88253 0.500607 6.82609C0.222937 6.74907 0.0235443 6.50598 0.00233179 6.2186C-0.00077814 6.18911 -0.000778137 6.15937 0.0023318 6.12987L0.00233215 2.10954C0.00233225 0.978621 0.919122 0.0618312 2.05004 0.0618313L7.50377 0.000400365Z" fill="#44466C"/>
<path d="M8.02943 4.8535L8.02943 13.5904C8.03751 13.7324 8.00684 13.874 7.9407 13.9999C7.78686 14.2716 7.46834 14.4042 7.16716 14.3221C6.86599 14.2399 6.65892 13.9639 6.66429 13.6518L6.66429 4.8535L6.56191 4.9354L4.88961 6.30054C4.6614 6.47647 4.34728 6.49012 4.10466 6.33467C3.90695 6.22088 3.77915 6.01584 3.76407 5.78822C3.74899 5.5606 3.84861 5.34049 4.02958 5.20161L6.82128 2.96961C7.11524 2.72957 7.53753 2.72957 7.83149 2.96961L10.6505 5.20843C10.9283 5.4431 10.9733 5.85433 10.7529 6.14355C10.6391 6.28517 10.4736 6.3756 10.293 6.39481C10.1123 6.41403 9.93147 6.36045 9.79046 6.24594L8.58231 5.27669L8.02943 4.8535Z" fill="#44466C"/>
</svg>
