<svg width="30" height="30" viewBox="0 0 30 30" fill="none" xmlns="http://www.w3.org/2000/svg">
<path d="M27.0124 14.7625L22.9499 11.6L27.0249 8.40002C27.1862 8.27351 27.3138 8.10929 27.3967 7.92183C27.4795 7.73437 27.515 7.52942 27.4999 7.32502C27.48 7.1214 27.4133 6.92515 27.3048 6.75166C27.1964 6.57817 27.0493 6.43214 26.8749 6.32502L20.4499 2.66252C20.2243 2.53558 19.9648 2.48184 19.7073 2.5087C19.4498 2.53557 19.207 2.64173 19.0124 2.81252L14.9999 6.31252L10.9874 2.81252C10.7929 2.64173 10.5501 2.53557 10.2926 2.5087C10.0351 2.48184 9.77558 2.53558 9.54994 2.66252L3.12494 6.32502C2.95063 6.43214 2.8035 6.57817 2.69506 6.75166C2.58663 6.92515 2.51984 7.1214 2.49994 7.32502C2.48492 7.52942 2.52039 7.73437 2.60322 7.92183C2.68606 8.10929 2.81371 8.27351 2.97494 8.40002L7.04994 11.6L2.98744 14.7125C2.82392 14.8377 2.69386 15.0013 2.60881 15.1889C2.52376 15.3764 2.48637 15.582 2.49994 15.7875C2.51379 15.9928 2.57808 16.1914 2.68711 16.3659C2.79613 16.5403 2.94653 16.6851 3.12494 16.7875L7.38744 19.2875V22.375C7.38833 22.5886 7.44395 22.7985 7.54899 22.9845C7.65403 23.1705 7.80498 23.3264 7.98744 23.4375L14.3499 27.35C14.54 27.4597 14.7555 27.5175 14.9749 27.5175C15.1944 27.5175 15.4099 27.4597 15.5999 27.35L21.9624 23.4375C22.1449 23.3264 22.2959 23.1705 22.4009 22.9845C22.5059 22.7985 22.5616 22.5886 22.5624 22.375V19.275L26.8249 16.8375C27.0034 16.7351 27.1538 16.5903 27.2628 16.4159C27.3718 16.2414 27.4361 16.0428 27.4499 15.8375C27.4694 15.6363 27.4397 15.4334 27.3635 15.2462C27.2873 15.0589 27.1669 14.893 27.0124 14.7625ZM19.9999 5.27502L24.0374 7.57502L20.8499 10.075L17.0999 7.77502L19.9999 5.27502ZM18.6374 11.675L14.9999 14.175L11.3624 11.675L14.9999 9.43752L18.6374 11.675ZM5.98744 7.57502L9.99994 5.27502L12.8874 7.77502L9.13744 10.075L5.98744 7.57502ZM5.98744 15.5625L9.11244 13.1625L12.8624 15.7625L10.0874 17.925L5.98744 15.5625ZM20.0999 21.6375L14.9999 24.7875L9.88744 21.6375V20.6375C10.0701 20.6824 10.2604 20.6854 10.4444 20.6464C10.6284 20.6075 10.8012 20.5275 10.9499 20.4125L14.9999 17.2875L19.0499 20.4125C19.2681 20.5819 19.5363 20.6742 19.8124 20.675C19.9121 20.6871 20.0128 20.6871 20.1124 20.675L20.0999 21.6375ZM19.9124 17.8875L17.1249 15.7625L20.8749 13.1625L24.0124 15.5875L19.9124 17.8875Z" fill="white"/>
</svg>
