<svg width="17" height="17" viewBox="0 0 17 17" fill="none" xmlns="http://www.w3.org/2000/svg">
<path d="M16.0008 8.36878L16.0008 14.3904C16.014 15.169 15.6295 15.9008 14.9808 16.3316C14.6102 16.5902 14.169 16.7284 13.7171 16.7274L9.14949 16.7274C8.83861 16.7495 8.54917 16.5679 8.43391 16.2783C8.29488 16.0063 8.34381 15.6761 8.55571 15.4561C8.70492 15.2906 8.91914 15.1988 9.14188 15.2049L13.6638 15.2049C13.9074 15.2116 14.1394 15.1012 14.288 14.908C14.3872 14.7823 14.4409 14.6266 14.4403 14.4665L14.4403 2.33197C14.4566 2.10998 14.375 1.89195 14.2168 1.73529C14.0587 1.57862 13.8399 1.49902 13.6181 1.51742L9.14949 1.51742C8.90809 1.52577 8.67706 1.41906 8.5269 1.22986C8.37674 1.04066 8.32529 0.791432 8.38823 0.558235C8.47413 0.248552 8.74525 0.0261726 9.06575 0.00251385C9.09865 -0.000953707 9.13182 -0.000953708 9.16472 0.00251385L13.6485 0.00251365C14.9098 0.0025136 15.9323 1.025 15.9323 2.2863L16.0008 8.36878Z" fill="#FF4848"/>
<path d="M10.5871 8.95496L0.842949 8.95496C0.684542 8.96397 0.526664 8.92976 0.386192 8.85599C0.0832365 8.68442 -0.0647116 8.32918 0.0268968 7.99328C0.118505 7.65738 0.426321 7.42644 0.774436 7.43243L10.5871 7.43243L10.4957 7.31824L8.97322 5.45315C8.77702 5.19862 8.76179 4.8483 8.93516 4.5777C9.06207 4.3572 9.29075 4.21467 9.54461 4.19785C9.79847 4.18102 10.044 4.29213 10.1989 4.49396L12.6882 7.60752C12.9559 7.93537 12.9559 8.40634 12.6882 8.73419L10.1912 11.8782C9.92951 12.188 9.47088 12.2382 9.14831 11.9924C8.99037 11.8655 8.88951 11.6809 8.86808 11.4794C8.84665 11.278 8.90641 11.0763 9.03413 10.919L10.1151 9.57158L10.5871 8.95496Z" fill="#FF4848"/>
</svg>
