<svg width="15" height="9" viewBox="0 0 15 9" fill="none" xmlns="http://www.w3.org/2000/svg">
<path fill-rule="evenodd" clip-rule="evenodd" d="M13.8321 0.321474C13.9828 0.497687 14.0574 0.726561 14.0393 0.957741C14.0213 1.18892 13.9122 1.40346 13.7359 1.55417L5.35186 8.74928C4.91945 9.11788 4.27218 9.07524 3.89185 8.65311L0.228731 4.6228C0.0179012 4.39167 -0.0536062 4.06562 0.0411451 3.76747C0.135896 3.46932 0.382511 3.24436 0.688093 3.17735C0.993674 3.11033 1.3118 3.21143 1.52263 3.44256L4.73114 6.93957L12.5994 0.199078C12.7789 0.0514101 13.0099 -0.0186866 13.2412 0.00428061C13.4725 0.0272478 13.6851 0.141388 13.8321 0.321474Z" fill="white"/>
</svg>
