<svg width="36" height="37" viewBox="0 0 36 37" fill="none" xmlns="http://www.w3.org/2000/svg">
<path fill-rule="evenodd" clip-rule="evenodd" d="M20.0884 0.103516C14.0709 0.10373 8.59817 3.5897 6.05409 9.04306C3.51002 14.4964 4.3552 20.9298 8.22151 25.541L0.82645 32.9167C0.335398 33.4077 0.14362 34.1234 0.323358 34.7942C0.503095 35.465 1.02704 35.989 1.69783 36.1687C2.36862 36.3484 3.08435 36.1567 3.5754 35.6656L11.0285 28.1544C13.6505 30.0588 16.8091 31.0823 20.0497 31.0776C28.603 31.0776 35.5368 24.1438 35.5368 15.5905C35.5368 7.0373 28.603 0.103516 20.0497 0.103516H20.0884ZM20.0884 27.2054C13.6735 27.2054 8.47317 22.0051 8.47317 15.5902C8.47317 9.17523 13.6735 3.97489 20.0884 3.97489C26.5034 3.97489 31.7037 9.17523 31.7037 15.5902C31.7037 18.6707 30.48 21.6251 28.3017 23.8034C26.1234 25.9817 23.169 27.2054 20.0884 27.2054Z" fill="white"/>
</svg>
