<svg width="14" height="17" viewBox="0 0 14 17" fill="none" xmlns="http://www.w3.org/2000/svg">
<path fill-rule="evenodd" clip-rule="evenodd" d="M9.57895 2.21057H2.21053C0.989686 2.21057 0 3.20026 0 4.4211V15.9158C0.000677034 16.2521 0.192026 16.5589 0.493718 16.7074C0.79541 16.8559 1.15522 16.8204 1.42211 16.6158L5.89474 13.1674L10.3674 16.6158C10.6343 16.8204 10.9941 16.8559 11.2958 16.7074C11.5974 16.5589 11.7888 16.2521 11.7895 15.9158V4.4211C11.7895 3.20026 10.7998 2.21057 9.57895 2.21057ZM10.3158 14.7369L6.43263 11.7158C6.11528 11.4726 5.67419 11.4726 5.35684 11.7158L1.47368 14.7148V4.42111C1.47368 4.01416 1.80357 3.68427 2.21052 3.68427H9.57894C9.98589 3.68427 10.3158 4.01416 10.3158 4.42111V14.7369Z" fill="#363954"/>
<path fill-rule="evenodd" clip-rule="evenodd" d="M11.7895 0H2.94741C2.54047 0 2.21057 0.329895 2.21057 0.736842C2.21057 1.14379 2.54047 1.47368 2.94741 1.47368H11.7895C12.1965 1.47368 12.5264 1.80358 12.5264 2.21053V14C12.5264 14.4069 12.8563 14.7368 13.2632 14.7368C13.6701 14.7368 14 14.4069 14 14V2.21053C14 0.989686 13.0104 0 11.7895 0Z" fill="#363954"/>
</svg>
