<svg width="19" height="16" viewBox="0 0 19 16" fill="none" xmlns="http://www.w3.org/2000/svg">
<path fill-rule="evenodd" clip-rule="evenodd" d="M5.63002 3.19998H17.6299C17.9035 3.19633 18.1656 3.30954 18.3504 3.5112C18.5353 3.71285 18.6253 3.98379 18.5979 4.25597L17.7979 11.9359C17.753 12.421 17.349 12.7938 16.8619 12.7999H6.73401C6.26834 12.7981 5.87236 12.4596 5.79802 11.9999L4.19803 4.17597L3.58203 1.59999H1.79804C1.35622 1.59999 0.998047 1.24182 0.998047 0.799995C0.998047 0.35817 1.35622 0 1.79804 0H4.07803C4.51356 0.00801829 4.89009 0.305969 4.99802 0.727996L5.63002 3.19998ZM7.26238 11.2001H16.2863L16.9263 4.8001H5.98239L7.26238 11.2001Z" fill="white"/>
<path d="M8.60624 15.9998C9.26898 15.9998 9.80624 15.4626 9.80624 14.7998C9.80624 14.1371 9.26898 13.5999 8.60624 13.5999C7.9435 13.5999 7.40625 14.1371 7.40625 14.7998C7.40625 15.4626 7.9435 15.9998 8.60624 15.9998Z" fill="white"/>
<path d="M14.2059 15.9998C14.8686 15.9998 15.4058 15.4626 15.4058 14.7998C15.4058 14.1371 14.8686 13.5999 14.2059 13.5999C13.5431 13.5999 13.0059 14.1371 13.0059 14.7998C13.0059 15.4626 13.5431 15.9998 14.2059 15.9998Z" fill="white"/>
</svg>
