<svg width="13" height="18" viewBox="0 0 13 18" fill="none" xmlns="http://www.w3.org/2000/svg">
<path d="M9.52628 5.72C9.52628 5.128 9.25428 4.632 8.71028 4.232C8.18228 3.832 7.52628 3.632 6.74228 3.632C6.07028 3.632 5.47828 3.808 4.96628 4.16C4.45428 4.496 4.11028 4.936 3.93428 5.48L0.646281 4.568C1.01428 3.352 1.74228 2.376 2.83028 1.64C3.93428 0.887999 5.22228 0.511999 6.69428 0.511999C8.40628 0.511999 9.85428 1.008 11.0383 2C12.2063 2.976 12.7903 4.224 12.7903 5.744C12.7903 6.448 12.6463 7.096 12.3583 7.688C12.0863 8.264 11.7183 8.736 11.2543 9.104C10.8063 9.456 10.4063 9.728 10.0543 9.92C9.71828 10.112 9.36628 10.272 8.99828 10.4L8.56628 10.52L8.39828 11.792H5.56628L5.20628 8.792C5.23828 8.776 5.31828 8.76 5.44628 8.744C5.57428 8.712 5.74228 8.664 5.95028 8.6C6.17428 8.536 6.43028 8.448 6.71828 8.336C7.23028 8.16 7.66228 7.968 8.01428 7.76C8.43028 7.504 8.78228 7.192 9.07028 6.824C9.37428 6.456 9.52628 6.088 9.52628 5.72ZM6.98228 17.336C6.45428 17.336 6.01428 17.16 5.66228 16.808C5.31028 16.456 5.13428 16.016 5.13428 15.488C5.13428 14.96 5.31028 14.52 5.66228 14.168C6.01428 13.816 6.45428 13.64 6.98228 13.64C7.51028 13.64 7.94228 13.816 8.27828 14.168C8.63028 14.52 8.80628 14.96 8.80628 15.488C8.80628 16.016 8.63028 16.456 8.27828 16.808C7.94228 17.16 7.51028 17.336 6.98228 17.336Z" fill="white"/>
</svg>
