<svg width="15" height="25" viewBox="0 0 15 25" fill="none" xmlns="http://www.w3.org/2000/svg">
<path d="M7.38659 0C3.80863 0 0.908203 2.90052 0.908203 6.47839C0.908203 10.0563 3.80863 12.9571 7.38659 12.9571C10.9645 12.9571 13.865 10.0563 13.865 6.47839C13.865 2.90052 10.9645 0 7.38659 0ZM7.38659 9.15659C5.90759 9.15659 4.70857 7.95748 4.70857 6.47848C4.70857 4.99948 5.90759 3.80046 7.38659 3.80046C8.86559 3.80046 10.0646 4.99948 10.0646 6.47848C10.0646 7.95748 8.86559 9.15659 7.38659 9.15659Z" fill="white"/>
<path d="M9.67476 18.1119C12.2683 17.5836 13.8225 16.3553 13.9047 16.2894C14.6637 15.6808 14.7856 14.5721 14.1769 13.8131C13.5684 13.0542 12.4599 12.9323 11.7007 13.5408C11.6847 13.5538 10.0271 14.8254 7.29962 14.8273C4.57228 14.8254 2.87958 13.5538 2.86354 13.5408C2.10443 12.9323 0.995899 13.0542 0.387351 13.8131C-0.22129 14.5721 -0.0993755 15.6808 0.659548 16.2894C0.742894 16.3563 2.36124 17.6165 5.02748 18.1324L1.31158 22.0158C0.636278 22.7162 0.656582 23.8313 1.35691 24.5066C1.69873 24.8362 2.13929 25 2.57948 25C3.04099 25 3.50204 24.8197 3.84766 24.4611L7.29971 20.7838L11.1005 24.485C11.7891 25.1725 12.9042 25.1714 13.5916 24.483C14.2789 23.7946 14.2781 22.6793 13.5896 21.9919L9.67476 18.1119Z" fill="white"/>
<path d="M7.3001 14.8271C7.29574 14.8271 7.30436 14.8272 7.3001 14.8273C7.29583 14.8272 7.30445 14.8271 7.3001 14.8271Z" fill="white"/>
</svg>
