<svg width="16" height="16" viewBox="0 0 16 16" fill="none" xmlns="http://www.w3.org/2000/svg">
<path fill-rule="evenodd" clip-rule="evenodd" d="M8 0C3.58172 0 0 3.58172 0 8C0 12.4183 3.58172 16 8 16C12.4183 16 16 12.4183 16 8C16 5.87827 15.1571 3.84344 13.6569 2.34315C12.1566 0.842855 10.1217 0 8 0ZM8 14.5453C4.38504 14.5453 1.45454 11.6148 1.45454 7.99988C1.45454 4.38493 4.38504 1.45443 8 1.45443C11.615 1.45443 14.5455 4.38493 14.5455 7.99988C14.5455 11.6148 11.615 14.5453 8 14.5453Z" fill="white"/>
<path fill-rule="evenodd" clip-rule="evenodd" d="M11.7819 7.27286L6.76368 4.36377C6.49804 4.21019 6.17126 4.20739 5.90303 4.35641C5.63479 4.50543 5.46453 4.78436 5.45459 5.09104V10.9092C5.46453 11.2159 5.63479 11.4948 5.90303 11.6439C6.17126 11.7929 6.49804 11.7901 6.76368 11.6365L11.7819 8.72741C12.0256 8.56571 12.1722 8.29265 12.1722 8.00013C12.1722 7.70762 12.0256 7.43456 11.7819 7.27286ZM6.90913 9.89076V6.10894L10.1819 7.99985L6.90913 9.89076Z" fill="white"/>
</svg>
