<svg width="15" height="14" viewBox="0 0 15 14" fill="none" xmlns="http://www.w3.org/2000/svg">
<path fill-rule="evenodd" clip-rule="evenodd" d="M13.3067 2.67517H12.3936C12.4303 2.57435 12.4564 2.46997 12.4715 2.36374C12.6049 1.51643 12.1955 0.675872 11.4461 0.258507C10.6968 -0.158857 9.76662 -0.0643765 9.11649 0.49514L6.87983 2.40621L4.65026 0.49514C4.00013 -0.0643765 3.06996 -0.158857 2.3206 0.258507C1.57124 0.675872 1.16186 1.51643 1.29528 2.36374C1.31033 2.46997 1.33643 2.57435 1.37314 2.67517H0.849362C0.380272 2.67517 0 3.05544 0 3.52453V6.07262C0 6.54171 0.380272 6.92198 0.849362 6.92198H1.4156V11.8766C1.4156 13.0493 2.36628 14 3.53901 14H10.617C11.7898 14 12.7404 13.0493 12.7404 11.8766V6.92198H13.3067C13.7758 6.92198 14.156 6.54171 14.156 6.07262V3.52453C14.156 3.05544 13.7758 2.67517 13.3067 2.67517ZM10.0366 1.57096C10.2477 1.38639 10.5554 1.36358 10.7914 1.51499C11.0274 1.6664 11.135 1.95559 11.0552 2.22441C10.9754 2.49323 10.7276 2.67696 10.4472 2.67513H8.74135L10.0366 1.57096ZM3.05833 1.47562C2.83493 1.57744 2.69105 1.79977 2.68965 2.04527C2.68965 2.39318 2.97169 2.67521 3.3196 2.67521H5.0254L3.73012 1.57104C3.54392 1.41105 3.28172 1.37381 3.05833 1.47562ZM11.3248 11.8766C11.3248 12.2675 11.0079 12.5844 10.617 12.5844H3.53901C3.14811 12.5844 2.83121 12.2675 2.83121 11.8766V6.92203H11.3248V11.8766ZM1.41561 5.50648H12.7404V4.09088H1.41561V5.50648Z" fill="white"/>
</svg>
