<svg width="22" height="12" viewBox="0 0 22 12" fill="none" xmlns="http://www.w3.org/2000/svg">
<path fill-rule="evenodd" clip-rule="evenodd" d="M11.7652 11.9498C11.7652 11.9498 12.1519 11.9077 12.35 11.6988C12.5313 11.5075 12.525 11.1464 12.525 11.1464C12.525 11.1464 12.5009 9.46019 13.2985 9.21122C14.0846 8.96637 15.0939 10.8418 16.165 11.563C16.9741 12.1083 17.5883 11.9889 17.5883 11.9889L20.4505 11.9498C20.4505 11.9498 21.9472 11.8593 21.2376 10.704C21.179 10.6093 20.8237 9.84907 19.1101 8.28737C17.3147 6.65263 17.5558 6.91703 19.7169 4.0889C21.0333 2.36672 21.5594 1.3153 21.3949 0.865724C21.2387 0.435692 20.2703 0.549887 20.2703 0.549887L17.0485 0.569434C17.0485 0.569434 16.8095 0.537542 16.6324 0.641449C16.4595 0.743299 16.3473 0.980948 16.3473 0.980948C16.3473 0.980948 15.838 2.31322 15.1578 3.44694C13.723 5.83784 13.1497 5.96438 12.9149 5.81623C12.3689 5.46953 12.5051 4.42532 12.5051 3.68356C12.5051 1.36571 12.8636 0.399685 11.8081 0.14969C11.4581 0.0663587 11.2003 0.0118331 10.3042 0.00257405C9.15443 -0.00874257 8.18182 0.00668918 7.63053 0.271087C7.2637 0.447009 6.98072 0.840004 7.15366 0.862638C7.36642 0.890415 7.84853 0.990207 8.10426 1.33176C8.4344 1.77311 8.42287 2.7628 8.42287 2.7628C8.42287 2.7628 8.61257 5.49114 7.97954 5.82961C7.54564 6.06211 6.95033 5.58784 5.67063 3.41814C5.01559 2.30705 4.5209 1.07868 4.5209 1.07868C4.5209 1.07868 4.42552 0.849263 4.25469 0.725809C4.04822 0.576636 3.76 0.53034 3.76 0.53034L0.69858 0.549887C0.69858 0.549887 0.238477 0.562233 0.069737 0.75873C-0.0801373 0.932595 0.0582082 1.2937 0.0582082 1.2937C0.0582082 1.2937 2.45515 6.79872 5.16966 9.57335C7.65883 12.1165 10.4844 11.9498 10.4844 11.9498H11.7652Z" fill="white"/>
</svg>
